<?xml version="1.0" standalone="no"?>
<!DOCTYPE svg PUBLIC "-//W3C//DTD SVG 20010904//EN"
 "http://www.w3.org/TR/2001/REC-SVG-20010904/DTD/svg10.dtd">
<svg version="1.0" xmlns="http://www.w3.org/2000/svg"
 viewBox="0 0 598.000000 497.000000"
 preserveAspectRatio="xMidYMid meet">

<g transform="translate(0.000000,497.000000) scale(0.100000,-0.100000)"
fill="#0000ff" stroke="none">
<path d="M2515 4598 c-577 -36 -1015 -209 -1359 -538 -238 -228 -425 -540
-490 -820 -21 -94 -44 -213 -44 -230 0 -8 -5 -94 -11 -190 -10 -160 -9 -258 5
-348 l5 -34 512 7 c282 4 559 10 617 14 l105 6 7 95 c4 52 12 113 17 135 6 22
15 71 21 109 44 277 250 503 545 599 122 39 189 50 315 49 188 -1 370 -49 500
-130 78 -50 189 -166 228 -240 97 -182 107 -451 25 -657 -19 -49 -41 -97 -47
-105 -6 -8 -20 -31 -30 -50 -37 -66 -149 -202 -215 -259 -37 -31 -105 -85
-151 -121 -279 -211 -437 -340 -508 -414 -192 -203 -283 -399 -317 -686 -17
-134 -19 -367 -5 -405 l10 -26 527 7 c291 3 531 9 534 13 4 3 12 60 18 125 17
172 63 322 124 404 43 57 237 238 315 292 52 36 103 73 115 83 11 10 27 15 34
12 8 -2 12 -1 9 4 -3 5 51 49 120 97 69 49 164 118 212 154 348 261 571 592
647 960 44 213 50 470 15 645 -49 243 -149 479 -279 655 -212 289 -504 501
-861 625 -208 72 -486 133 -708 155 -138 14 -396 18 -557 8z"/>
<path d="M2610 3244 c-106 -22 -225 -87 -301 -163 -36 -36 -78 -88 -94 -115
-137 -236 -103 -510 89 -702 79 -78 135 -113 246 -152 65 -22 91 -26 195 -26
108 0 128 3 205 30 422 149 545 651 236 960 -150 149 -368 213 -576 168z"/>
</g>
</svg>
